<svg id="Calque_1" data-name="Calque 1" xmlns="http://www.w3.org/2000/svg" viewBox="0 0 293.31 96.79"><defs><style>.cls-1{fill:#e06556;}.cls-2,.cls-5{fill:#78aa84;}.cls-3{fill:#fff;}.cls-4{fill:#fdfefe;}.cls-5{font-size:67.01px;font-family:BebasNeueBold, Bebas Neue;font-weight:700;}</style></defs><title>logocouleur</title><g id="YrzmG9.tif"><path class="cls-1" d="M130.71,148.47c13.39,0,23.74,7.27,27.74,18.41A28.1,28.1,0,0,1,150,197.63c-12.06,10.31-23.93,20.83-35.88,31.26-.59.52-1.16,1.06-1.8,1.53a3.45,3.45,0,0,1-4.62-.35,3.55,3.55,0,0,1-.1-4.78c.32-.37.68-.7,1-1l20.58-20.58a4.41,4.41,0,0,0,1.47-2.23,3.27,3.27,0,0,0-1.5-3.61,3,3,0,0,0-3.72.1,11.09,11.09,0,0,0-1.34,1.22l-20.33,20.32a12.65,12.65,0,0,1-1.19,1.13A3.49,3.49,0,0,1,97.53,216,10.58,10.58,0,0,1,99,214.32l20.58-20.58c1.84-1.85,2-3.71.49-5.23s-3.39-1.4-5.23.45Q104.37,199.37,94,209.8a4.86,4.86,0,0,1-2.35,1.63,3.37,3.37,0,0,1-3.71-1.3,3.42,3.42,0,0,1-.09-4.08,9.27,9.27,0,0,1,1.33-1.48l20.71-20.71c1.46-1.47,1.76-3,.94-4.41-1.22-2.17-3.69-2.37-5.65-.42q-10.5,10.47-21,21a4.72,4.72,0,0,1-2.34,1.63A3.35,3.35,0,0,1,78,200.2a3.41,3.41,0,0,1,.34-4.36q4.53-5.22,9.09-10.41,11.94-13.69,23.9-27.39C116.87,151.72,123.92,148.61,130.71,148.47Z" transform="translate(-59.14 -134.35)"/></g><path class="cls-2" d="M74.67,144.5a6.68,6.68,0,0,1,.5.52c2.31,3.06,4.88,3.64,8.58,2,2.75-1.2,5.91-.64,8.68,1.25,1,.71,1.29.91.41,1.86q-14.76,15.78-29.46,31.63c-1.46,1.58-2.11.2-2.63-.68a12.38,12.38,0,0,1-1.2-9.37c2.2-9.11,7.59-16.06,15.43-21.1,1.13-.73,1.2-1,.27-1.86-2.3-2.08-4.53-4.24-6.83-6.31-1.27-1.15-1.4-2.23-.16-3.44a19.06,19.06,0,0,0,1.3-1.4c4.51-5.45,4.89-3.12,8.62.16a1.89,1.89,0,0,1,.06,3C77.05,142.05,75.85,143.27,74.67,144.5Z" transform="translate(-59.14 -134.35)"/><path class="cls-2" d="M100.3,155.65c.16.79-.54,1.19-1,1.71q-14.16,15.21-28.34,30.42c-1.5,1.62-3.12,1.67-4.68.21s-1.61-3.06-.1-4.68q14.18-15.21,28.32-30.44a2.88,2.88,0,0,1,3.8-.7C99.87,152.87,100.25,154.06,100.3,155.65Z" transform="translate(-59.14 -134.35)"/><path class="cls-2" d="M72.5,190.25a5.12,5.12,0,0,1,4.35-4.94c2.09-.37,3.57-1.06,3.63-3.7a5.5,5.5,0,0,1,5-5.32c2.36-.09,3.12-1.5,3.34-3.4.33-2.89,1.44-4.84,4.66-5.19,2.45-.27,3.48-2,3.82-4.35a5.17,5.17,0,0,1,5.17-4.75c1.18,0,1.16.89,1.72,1.33-.53.39-.2,1.39-1.28,1.49-2,.2-2.77,1.46-2.9,3.49a5.82,5.82,0,0,1-5.2,5.49c-2.31.33-3.23,1.47-3.22,3.76a4.92,4.92,0,0,1-4.25,4.73c-2.6.34-3.95,1.69-4.17,4.31A4.94,4.94,0,0,1,78.39,188a3.06,3.06,0,0,0-3.1,2.74c-.16,1-.3,1.87-1.49,1.79C72.4,192.41,72.5,191.26,72.5,190.25Z" transform="translate(-59.14 -134.35)"/><path class="cls-3" d="M78.83,153.3c-.58.65-1,1.58-2,1.13-.25-.11-.69-.38-.45-.79C77,152.65,77.89,153,78.83,153.3Z" transform="translate(-59.14 -134.35)"/><path class="cls-3" d="M68.24,163a1.2,1.2,0,0,1-1,1.24c-.65.12-.62-.48-.6-.89a1.16,1.16,0,0,1,1.12-1.22C68.2,162.1,68.21,162.55,68.24,163Z" transform="translate(-59.14 -134.35)"/><path class="cls-4" d="M85.35,151.92c-.35.27-.65.69-1,.75-.58.11-1-.41-1.1-.9s.34-.64.81-.67S84.94,151.5,85.35,151.92Z" transform="translate(-59.14 -134.35)"/><path class="cls-4" d="M74.71,163.08A3.19,3.19,0,0,1,73,164.74C72.94,163.39,73.25,162.63,74.71,163.08Z" transform="translate(-59.14 -134.35)"/><path class="cls-3" d="M62.88,173.41c1.35-.35,1.66.2,1.87.81,0,.12-.26.52-.4.52C63.32,174.75,63.91,173.67,62.88,173.41Z" transform="translate(-59.14 -134.35)"/><text class="cls-5" transform="translate(109.64 74.99)">SHAREAT</text><text class="cls-5" transform="translate(109.64 74.99)">SHAREAT</text></svg>